<?xml version="1.0" encoding="UTF-8" standalone="no"?>
<!-- Created with Inkscape (http://www.inkscape.org/) -->

<svg
   xmlns:dc="http://purl.org/dc/elements/1.1/"
   xmlns:cc="http://creativecommons.org/ns#"
   xmlns:rdf="http://www.w3.org/1999/02/22-rdf-syntax-ns#"
   xmlns:svg="http://www.w3.org/2000/svg"
   xmlns="http://www.w3.org/2000/svg"
   xmlns:xlink="http://www.w3.org/1999/xlink"
   xmlns:sodipodi="http://sodipodi.sourceforge.net/DTD/sodipodi-0.dtd"
   xmlns:inkscape="http://www.inkscape.org/namespaces/inkscape"
   width="750"
   height="750"
   id="svg3544"
   version="1.1"
   inkscape:version="0.91 r13725"
   sodipodi:docname="quantum-icon.svg"
   inkscape:export-filename="C:\Users\horac\Documents\git\cityzendata\warp10-quantum\images\quantum-icon-96.png"
   inkscape:export-xdpi="11.52"
   inkscape:export-ydpi="11.52">
  <defs
     id="defs3546">
    <clipPath
       clipPathUnits="userSpaceOnUse"
       id="clipPath4065-1">
      <path
         style="fill:none;stroke:#000000;stroke-width:0.80000001px;stroke-linecap:butt;stroke-linejoin:miter;stroke-opacity:1"
         d="m 704.49049,549.91696 11.80869,3.71231 -0.17678,-28.99137 -10.74802,0.10606 z"
         id="path4067-8"
         inkscape:connector-curvature="0" />
    </clipPath>
    <clipPath
       clipPathUnits="userSpaceOnUse"
       id="clipPath4073-4">
      <path
         style="fill:none;stroke:#000000;stroke-width:0.80000001px;stroke-linecap:butt;stroke-linejoin:miter;stroke-opacity:1"
         d="m 706.80626,513.05902 9.31614,-2.08596 -5.3224,-26.57304 -6.48629,0.94041 -7.81353,4.61387 z"
         id="path4075-9"
         inkscape:connector-curvature="0" />
    </clipPath>
    <clipPath
       clipPathUnits="userSpaceOnUse"
       id="clipPath4049-3">
      <path
         style="fill:none;stroke:#000000;stroke-width:0.80000001px;stroke-linecap:butt;stroke-linejoin:miter;stroke-opacity:1"
         d="m 638.25,607.25002 0,-9.9 -25.2,-1.7 -2.75,8.9 16.05,4.45 z"
         id="path4051-9"
         inkscape:connector-curvature="0" />
    </clipPath>
    <clipPath
       clipPathUnits="userSpaceOnUse"
       id="clipPath4057-1">
      <path
         style="fill:none;stroke:#000000;stroke-width:0.80000001px;stroke-linecap:butt;stroke-linejoin:miter;stroke-opacity:1"
         d="m 683,581.55002 8.4,9.15 16.85,-23.9 -1.75,-0.85 -9.75,-5.45 z"
         id="path4059-1"
         inkscape:connector-curvature="0" />
    </clipPath>
    <clipPath
       clipPathUnits="userSpaceOnUse"
       id="clipPath4039-0">
      <path
         style="fill:none;stroke:#000000;stroke-width:1px;stroke-linecap:butt;stroke-linejoin:miter;stroke-opacity:1"
         d="m 814.85218,293.81338 -3.88909,17.58928 31.46626,4.68458 4.94974,-8.83883 -15.82151,-10.6066 z"
         id="path4041-9"
         inkscape:connector-curvature="0" />
    </clipPath>
  </defs>
  <sodipodi:namedview
     id="base"
     pagecolor="#ffffff"
     bordercolor="#666666"
     borderopacity="1.0"
     inkscape:pageopacity="0.0"
     inkscape:pageshadow="2"
     inkscape:zoom="0.7"
     inkscape:cx="501.43535"
     inkscape:cy="423.25509"
     inkscape:document-units="px"
     inkscape:current-layer="layer1"
     showgrid="false"
     inkscape:window-width="1563"
     inkscape:window-height="979"
     inkscape:window-x="-8"
     inkscape:window-y="-8"
     inkscape:window-maximized="1"
     borderlayer="true" />
  <metadata
     id="metadata3549">
    <rdf:RDF>
      <cc:Work
         rdf:about="">
        <dc:format>image/svg+xml</dc:format>
        <dc:type
           rdf:resource="http://purl.org/dc/dcmitype/StillImage" />
        <dc:title />
      </cc:Work>
    </rdf:RDF>
  </metadata>
  <g
     inkscape:groupmode="layer"
     id="layer2"
     inkscape:label="Fondo"
     sodipodi:insensitive="true">
    <rect
       style="color:#000000;fill:#ffffff;fill-opacity:1;fill-rule:nonzero;stroke:none;stroke-width:5;marker:none;visibility:visible;display:inline;overflow:visible;enable-background:accumulate"
       id="rect4402"
       width="1446.5385"
       height="1248.5486"
       x="-167.68532"
       y="-167.21851" />
  </g>
  <g
     inkscape:label="Layer 1"
     inkscape:groupmode="layer"
     id="layer1"
     transform="translate(0,-302.36218)">
    <path
       style="fill:none;stroke:#666666;stroke-width:30;stroke-linecap:round;stroke-linejoin:round;stroke-miterlimit:4;stroke-opacity:1;stroke-dasharray:none;display:inline"
       d="m 36.691613,924.02521 c 56.890794,0.0844 113.782637,-0.57429 170.667907,0.30377 l 43.17294,-450.47521 42.69897,411.37116 41.56645,39.28622 41.082,-66.93331 44.46978,66.15778 40.44343,0 42.80654,-81.26624 35.01731,82.63396 46.54619,-36.38536 42.8629,35.88756 92.42519,-0.5799"
       id="sparkline"
       inkscape:connector-curvature="0"
       sodipodi:nodetypes="ccccccccccccc" />
    <path
       d="m 307.6899,416.06852 19.19706,-8.3546 31.22701,72.22574 -19.19705,8.3546 z"
       id="use7961-0"
       inkscape:connector-curvature="0"
       style="fill:#ec6929;fill-opacity:1;stroke:none;display:inline" />
    <path
       d="m 440.82107,390.73231 20.78873,2.39481 -7.16086,62.57135 -20.78874,-2.39481 z"
       id="use7963-2"
       inkscape:connector-curvature="0"
       style="fill:#e59e4b;fill-opacity:1;stroke:none;display:inline" />
    <path
       d="m 568.74256,435.57504 16.81015,12.50252 -37.38455,50.59618 -16.81015,-12.50252 z"
       id="use7965-3"
       inkscape:connector-curvature="0"
       style="fill:#edc24e;fill-opacity:1;stroke:none;display:inline" />
    <use
       style="fill:#8a8a8a;fill-opacity:1;stroke:none;display:inline"
       id="use9624"
       transform="matrix(0.21307782,-0.15220561,0.15170659,0.21377871,421.37849,652.64368)"
       xlink:href="#mark1-9"
       x="0"
       y="0"
       width="1233.75"
       height="692.5" />
    <use
       style="fill:#8e8e8e;fill-opacity:1;stroke:none;display:inline"
       id="use9626"
       transform="matrix(0.22776823,-0.12902584,0.12860282,0.22851743,421.37849,652.64368)"
       xlink:href="#mark1-9"
       x="0"
       y="0"
       width="1233.75"
       height="692.5" />
    <use
       style="fill:#e2e2e2;fill-opacity:1;stroke:none;display:inline"
       id="use9630"
       transform="matrix(-0.17688001,0.19332664,-0.19269281,-0.17746183,424.29382,655.68563)"
       xlink:href="#mark1-9"
       x="0"
       y="0"
       width="1233.75"
       height="692.5" />
    <use
       style="fill:#e6e6e6;fill-opacity:1;stroke:none;display:inline"
       id="use9632"
       transform="matrix(-0.19605292,0.17371774,-0.1731482,-0.1966978,424.29382,655.68563)"
       xlink:href="#mark1-9"
       x="0"
       y="0"
       width="1233.75"
       height="692.5" />
    <use
       style="fill:#eaeaea;fill-opacity:1;stroke:none;display:inline"
       id="use9634"
       transform="matrix(-0.21307782,0.15220561,-0.15170659,-0.21377871,424.29382,655.68563)"
       xlink:href="#mark1-9"
       x="0"
       y="0"
       width="1233.75"
       height="692.5" />
    <use
       style="fill:#eeeeee;fill-opacity:1;stroke:none;display:inline"
       id="use9636"
       transform="matrix(-0.22776823,0.12902584,-0.12860282,-0.22851743,424.29382,655.68563)"
       xlink:href="#mark1-9"
       x="0"
       y="0"
       width="1233.75"
       height="692.5" />
    <path
       d="m 660.09337,541.62308 8.32723,19.2602 -71.98898,31.32973 -8.32723,-19.26019 z"
       id="use7975-9"
       inkscape:connector-curvature="0"
       style="fill:#7ac6e2;fill-opacity:1;stroke:none;display:inline" />
    <path
       d="m 685.34657,675.19216 -2.38696,20.85711 -62.36625,-7.18441 2.38696,-20.85713 z"
       id="use7977-6"
       inkscape:connector-curvature="0"
       style="fill:#28b6d8;fill-opacity:1;stroke:none;display:inline" />
    <path
       d="m 640.65085,803.53447 -12.46162,16.86539 -50.4303,-37.50757 12.46161,-16.86539 z"
       id="use7979-9"
       inkscape:connector-curvature="0"
       style="fill:#4366a3;fill-opacity:1;stroke:none;display:inline" />
    <path
       style="fill:#808080;fill-opacity:1;stroke:none;display:inline"
       d="m 795.625,293.5 c -31.52197,-0.0732 -62.44984,14.80105 -81.8125,42.34375 -31.64756,45.01754 -20.83004,107.19619 24.1875,138.84375 45.01754,31.64756 107.19619,20.79879 138.84375,-24.21875 31.64756,-45.01754 20.79879,-107.16494 -24.21875,-138.8125 l -5.34375,-3.5 C 831.1674,298.30471 813.30806,293.54105 795.625,293.5 z m -1.09375,9.3125 c 18.03651,-0.17016 36.30594,5.04359 52.25,16.09375 l 0.5,0.34375 c 40.8196,28.69639 50.63389,85.0554 21.9375,125.875 -28.69639,40.8196 -85.0554,50.63389 -125.875,21.9375 -40.8196,-28.69639 -50.63389,-85.0554 -21.9375,-125.875 17.40422,-24.75689 44.98804,-38.10955 73.125,-38.375 z"
       transform="matrix(2.638671,0,0,2.6473504,-1676.2571,-386.33247)"
       id="path3207"
       clip-path="url(#clipPath4039-0)"
       inkscape:connector-curvature="0" />
    <path
       id="path4016"
       d="m 636.5,607.08976 c -25.21758,0.0585 -49.95987,-11.84084 -65.45,-33.875 -25.31805,-36.01403 -16.66403,-85.75695 19.35,-111.075 36.01403,-25.31805 85.75695,-16.63903 111.075,19.375 25.31805,36.01403 16.63903,85.73195 -19.375,111.05 l -4.275,2.8 c -12.89108,7.88123 -27.17855,11.69216 -41.325,11.725 z m -0.875,-7.45 c 14.42921,0.13613 29.04475,-4.03487 41.8,-12.875 l 0.4,-0.275 c 32.65568,-22.95711 40.50711,-68.04432 17.55,-100.7 -22.95711,-32.65568 -68.04432,-40.50711 -100.7,-17.55 -32.65568,22.95711 -40.50711,68.04432 -17.55,100.7 13.92338,19.80551 35.99043,30.48764 58.5,30.7 z"
       style="fill:#999999;fill-opacity:1;stroke:none;display:inline"
       inkscape:connector-curvature="0"
       clip-path="url(#clipPath4057-1)"
       transform="matrix(3.2983387,0,0,-3.309188,-1676.2571,2399.6391)" />
    <path
       inkscape:connector-curvature="0"
       style="fill:#666666;fill-opacity:1;stroke:none;display:inline"
       d="m 636.5,607.08976 c -25.21758,0.0585 -49.95987,-11.84084 -65.45,-33.875 -25.31805,-36.01403 -16.66403,-85.75695 19.35,-111.075 36.01403,-25.31805 85.75695,-16.63903 111.075,19.375 25.31805,36.01403 16.63903,85.73195 -19.375,111.05 l -4.275,2.8 c -12.89108,7.88123 -27.17855,11.69216 -41.325,11.725 z m -0.875,-7.45 c 14.42921,0.13613 29.04475,-4.03487 41.8,-12.875 l 0.4,-0.275 c 32.65568,-22.95711 40.50711,-68.04432 17.55,-100.7 -22.95711,-32.65568 -68.04432,-40.50711 -100.7,-17.55 -32.65568,22.95711 -40.50711,68.04432 -17.55,100.7 13.92338,19.80551 35.99043,30.48764 58.5,30.7 z"
       id="path4045"
       clip-path="url(#clipPath4049-3)"
       transform="matrix(3.2983387,0,0,-3.309188,-1676.2571,2399.6391)" />
    <path
       inkscape:connector-curvature="0"
       style="fill:#cccccc;fill-opacity:1;stroke:none;display:inline"
       d="m 636.5,607.08976 c -25.21758,0.0585 -49.95987,-11.84084 -65.45,-33.875 -25.31805,-36.01403 -16.66403,-85.75695 19.35,-111.075 36.01403,-25.31805 85.75695,-16.63903 111.075,19.375 25.31805,36.01403 16.63903,85.73195 -19.375,111.05 l -4.275,2.8 c -12.89108,7.88123 -27.17855,11.69216 -41.325,11.725 z m -0.875,-7.45 c 14.42921,0.13613 29.04475,-4.03487 41.8,-12.875 l 0.4,-0.275 c 32.65568,-22.95711 40.50711,-68.04432 17.55,-100.7 -22.95711,-32.65568 -68.04432,-40.50711 -100.7,-17.55 -32.65568,22.95711 -40.50711,68.04432 -17.55,100.7 13.92338,19.80551 35.99043,30.48764 58.5,30.7 z"
       id="path4053"
       clip-path="url(#clipPath4073-4)"
       transform="matrix(3.2983387,0,0,-3.309188,-1676.2571,2399.6391)" />
    <path
       id="path4061"
       d="m 636.5,607.08976 c -25.21758,0.0585 -49.95987,-11.84084 -65.45,-33.875 -25.31805,-36.01403 -16.66403,-85.75695 19.35,-111.075 36.01403,-25.31805 85.75695,-16.63903 111.075,19.375 25.31805,36.01403 16.63903,85.73195 -19.375,111.05 l -4.275,2.8 c -12.89108,7.88123 -27.17855,11.69216 -41.325,11.725 z m -0.875,-7.45 c 14.42921,0.13613 29.04475,-4.03487 41.8,-12.875 l 0.4,-0.275 c 32.65568,-22.95711 40.50711,-68.04432 17.55,-100.7 -22.95711,-32.65568 -68.04432,-40.50711 -100.7,-17.55 -32.65568,22.95711 -40.50711,68.04432 -17.55,100.7 13.92338,19.80551 35.99043,30.48764 58.5,30.7 z"
       style="fill:#b3b3b3;fill-opacity:1;stroke:none;display:inline"
       inkscape:connector-curvature="0"
       clip-path="url(#clipPath4065-1)"
       transform="matrix(3.2983387,0,0,-3.309188,-1676.2571,2399.6391)" />
    <path
       style="color:#000000;fill:#999999;fill-opacity:1;fill-rule:nonzero;stroke:#999999;stroke-width:5;marker:none;visibility:visible;display:inline;overflow:visible;enable-background:accumulate;stroke-opacity:1;stroke-miterlimit:4;stroke-dasharray:none"
       d="m 421.73371,501.41336 c -19.46939,0.32139 -38.88605,4.65904 -58.21566,13.0713 -20.56716,8.95088 -37.77505,21.15816 -51.78393,36.48379 l 1.23688,12.40947 c 7.34268,-8.99421 15.7512,-17.03151 25.31475,-24.15707 -3.43004,21.3829 -4.65836,42.98122 -3.79308,64.77735 -5.92793,-0.39667 -11.76891,-1.12376 -17.4812,-2.06825 l 0.90705,9.01754 c 5.53998,0.8332 11.15883,1.45807 16.90398,1.82004 1.87607,26.1386 6.89627,49.45205 15.0899,69.9066 l -23.50067,10.25848 0.98949,9.183 26.05689,-11.33396 c 9.24815,19.88694 22.74614,39.42118 40.4871,58.65535 -10.15121,12.35216 -18.4633,25.37709 -24.90244,39.04843 -12.91776,-5.37485 -24.51511,-12.16334 -34.79748,-20.26879 l 1.15442,11.74761 c 9.88801,6.91915 20.8342,12.70761 32.81847,17.45596 39.21827,15.53901 78.18442,14.92181 116.84362,-1.90277 38.65922,-16.82457 65.73345,-44.8715 81.22158,-84.21883 15.48799,-39.34742 14.79039,-78.44158 -1.97893,-117.22796 -16.76946,-38.7864 -44.72448,-65.94978 -83.94269,-81.48877 -19.60929,-7.76952 -39.15864,-11.4899 -58.62805,-11.16852 z m -0.0823,9.10027 c 16.69698,-0.34527 33.1859,2.37195 49.55751,8.02479 -5.93499,12.58246 -13.47289,24.53456 -22.67605,35.82196 -15.31088,-15.61807 -31.93901,-29.44138 -49.80492,-41.44759 7.65676,-1.39621 15.33388,-2.24222 22.92346,-2.39916 z m -34.9624,4.96378 c 20.06076,12.57265 38.70752,27.7705 55.90684,45.50135 -12.68874,14 -26.24934,24.49108 -40.65202,31.52002 l -31.0044,-71.72667 c 4.78078,-1.97191 10.01411,-3.77689 15.74958,-5.2947 z m 92.84811,6.12201 c 34.34527,14.29042 59.36432,38.29029 75.11966,71.97483 l -59.45251,25.89441 c -9.28774,-19.9784 -22.8286,-39.58666 -40.56961,-58.82082 10.19075,-12.2607 18.50292,-25.28568 24.90246,-39.04842 z m -116.67874,2.64736 31.08684,71.80938 c -14.86524,5.70853 -31.77086,8.37803 -50.6295,8.1075 -1.06092,-24.75431 0.64648,-48.72814 5.11244,-71.97483 5.02343,-3.16449 9.8197,-5.82688 14.43022,-7.94205 z m 85.92172,43.1849 c 16.81062,18.33488 29.6093,36.81394 38.34318,55.51162 l -60.60696,26.39076 -21.02691,-48.72778 c 15.49683,-7.50503 29.90004,-18.54305 43.29069,-33.1746 z m 109.42248,34.25009 c 13.74932,34.5575 14.09597,69.24107 0.98939,104.07395 -14.34916,-4.62416 -29.50897,-7.43493 -45.43458,-8.43844 -1.87602,-26.13858 -6.93577,-49.46078 -15.08995,-69.82385 l 59.53514,-25.81166 z m -160.7941,2.39915 21.0269,48.7278 -60.44205,26.30803 c -7.63983,-19.17387 -12.32541,-41.17579 -14.18286,-66.01829 19.79792,0.18771 37.63867,-2.83277 53.59801,-9.01754 z m 93.1781,26.96988 c 7.60033,19.08241 12.40801,41.01044 14.26528,65.85284 -19.79778,-0.18769 -37.79482,2.87589 -53.84538,9.10026 l -20.94444,-48.56232 60.52454,-26.39078 z m -68.60547,29.86542 21.0269,48.56234 c -15.40565,7.4654 -29.81751,18.54307 -43.20824,33.1746 -16.81039,-18.33478 -29.56623,-36.82263 -38.26072,-55.4289 l 60.44206,-26.30804 z m 83.28309,44.92224 c 1.06092,24.75431 -0.64664,48.81074 -5.11239,72.05756 -5.02364,3.16442 -9.89354,5.78717 -14.59526,7.94205 L 454.5522,714.11141 c 14.95639,-5.74821 31.85334,-8.54342 50.712,-8.27295 z m 8.90553,0.24805 c 14.5029,0.97052 28.34667,3.60995 41.55908,7.85931 -10.28714,23.06293 -25.44181,42.02172 -45.43472,56.91804 3.42997,-21.38301 4.74088,-42.98122 3.87564,-64.77735 z m -67.69847,11.49943 31.00444,71.80938 c -4.68963,1.93223 -9.84938,3.61137 -15.5847,5.12924 -20.06089,-12.57275 -38.70752,-27.68778 -55.90685,-45.41861 12.68878,-13.99994 26.1756,-24.53078 40.48711,-31.52001 z m -46.42412,38.13852 c 15.27134,15.5266 31.89943,29.34982 49.80493,41.44758 -24.50171,4.4678 -48.66773,2.59676 -72.48099,-5.62562 5.935,-12.58232 13.47295,-24.53451 22.67606,-35.82196 z"
       id="path7329"
       inkscape:connector-curvature="0" />
  </g>
</svg>
